<svg width="233" height="19" fill="none" xmlns="http://www.w3.org/2000/svg"><path d="M6.432 18 .408 1.08h3.816l3.888 11.568L12.216 1.08h2.688l3.984 11.76L22.92 1.08h3.6L20.448 18h-3.024l-3.96-11.232L9.456 18H6.432zm21.843 0V1.08h3.624v6.744a3.91 3.91 0 0 1 1.608-1.368c.656-.32 1.384-.48 2.184-.48 2.768 0 4.152 1.648 4.152 4.944V18h-3.624v-6.912c0-.816-.152-1.4-.456-1.752-.304-.368-.752-.552-1.344-.552-.768 0-1.384.24-1.848.72-.448.48-.672 1.12-.672 1.92V18h-3.624zm20.393.264c-1.392 0-2.592-.248-3.6-.744-.992-.512-1.76-1.224-2.304-2.136-.528-.928-.792-2.016-.792-3.264 0-1.216.256-2.28.768-3.192a5.655 5.655 0 0 1 2.136-2.16c.912-.528 1.96-.792 3.144-.792 1.712 0 3.072.544 4.08 1.632 1.008 1.072 1.512 2.528 1.512 4.368v.912h-8.184c.128.928.464 1.608 1.008 2.04.56.416 1.328.624 2.304.624.64 0 1.288-.096 1.944-.288a5.447 5.447 0 0 0 1.776-.888l.96 2.424c-.592.448-1.32.808-2.184 1.08a8.842 8.842 0 0 1-2.568.384zm-.504-9.888c-.768 0-1.392.232-1.872.696-.464.464-.752 1.112-.864 1.944h5.184c-.096-1.76-.912-2.64-2.448-2.64zM55.72 18V6.216h3.552v2.04c.56-1.376 1.76-2.136 3.6-2.28l1.056-.072.216 3.048-2.04.216c-1.792.176-2.688 1.088-2.688 2.736V18H55.72zm15.8.264c-1.392 0-2.592-.248-3.6-.744-.992-.512-1.76-1.224-2.304-2.136-.528-.928-.792-2.016-.792-3.264 0-1.216.256-2.28.768-3.192a5.654 5.654 0 0 1 2.136-2.16c.912-.528 1.96-.792 3.144-.792 1.712 0 3.072.544 4.08 1.632 1.008 1.072 1.512 2.528 1.512 4.368v.912H68.28c.128.928.464 1.608 1.008 2.04.56.416 1.328.624 2.304.624.64 0 1.288-.096 1.944-.288a5.447 5.447 0 0 0 1.776-.888l.96 2.424c-.592.448-1.32.808-2.184 1.08a8.842 8.842 0 0 1-2.568.384zm-.504-9.888c-.768 0-1.392.232-1.872.696-.464.464-.752 1.112-.864 1.944h5.184c-.096-1.76-.912-2.64-2.448-2.64zm14.091-4.44V.552h3.912v3.384h-3.912zM85.251 18V6.216h3.624V18h-3.624zm6.422 0V6.216h3.552v1.728a3.94 3.94 0 0 1 1.608-1.464c.672-.336 1.424-.504 2.256-.504 1.392 0 2.432.408 3.12 1.224.688.8 1.032 2.04 1.032 3.72V18h-3.624v-6.912c0-.816-.152-1.4-.456-1.752-.304-.368-.752-.552-1.344-.552-.768 0-1.384.24-1.848.72-.448.48-.672 1.12-.672 1.92V18h-3.624zm26.737.264c-3.312 0-4.968-1.608-4.968-4.824V8.928h-2.232V6.216h2.232V2.76h3.624v3.456h3.48v2.712h-3.48v4.368c0 .672.152 1.176.456 1.512.32.336.824.504 1.512.504.208 0 .424-.024.648-.072.24-.048.496-.112.768-.192l.528 2.64a4.586 4.586 0 0 1-1.2.408c-.464.112-.92.168-1.368.168zm3.92-.264V1.08h3.624v6.744a3.91 3.91 0 0 1 1.608-1.368c.656-.32 1.384-.48 2.184-.48 2.768 0 4.152 1.648 4.152 4.944V18h-3.624v-6.912c0-.816-.152-1.4-.456-1.752-.304-.368-.752-.552-1.344-.552-.768 0-1.384.24-1.848.72-.448.48-.672 1.12-.672 1.92V18h-3.624zm20.393.264c-1.392 0-2.592-.248-3.6-.744-.992-.512-1.76-1.224-2.304-2.136-.528-.928-.792-2.016-.792-3.264 0-1.216.256-2.28.768-3.192a5.654 5.654 0 0 1 2.136-2.16c.912-.528 1.96-.792 3.144-.792 1.712 0 3.072.544 4.08 1.632 1.008 1.072 1.512 2.528 1.512 4.368v.912h-8.184c.128.928.464 1.608 1.008 2.04.56.416 1.328.624 2.304.624.64 0 1.288-.096 1.944-.288a5.447 5.447 0 0 0 1.776-.888l.96 2.424c-.592.448-1.32.808-2.184 1.08a8.842 8.842 0 0 1-2.568.384zm-.504-9.888c-.768 0-1.392.232-1.872.696-.464.464-.752 1.112-.864 1.944h5.184c-.096-1.76-.912-2.64-2.448-2.64zM159.791 18 154.99 6.216h3.673l2.808 7.56 2.808-7.56h2.4l2.808 7.656 2.808-7.656h3.48L171.023 18h-3.072l-2.592-6.696-2.52 6.696h-3.048zm22.718.264c-1.264 0-2.368-.248-3.312-.744a5.44 5.44 0 0 1-2.16-2.136c-.512-.928-.768-2.024-.768-3.288 0-1.248.256-2.328.768-3.24a5.242 5.242 0 0 1 2.16-2.136c.944-.496 2.048-.744 3.312-.744 1.264 0 2.36.248 3.288.744a5.207 5.207 0 0 1 2.184 2.136c.528.912.792 1.992.792 3.24 0 1.264-.264 2.36-.792 3.288a5.4 5.4 0 0 1-2.184 2.136c-.928.496-2.024.744-3.288.744zm0-2.712c.768 0 1.392-.28 1.872-.84.496-.56.744-1.432.744-2.616 0-1.168-.248-2.024-.744-2.568-.48-.56-1.104-.84-1.872-.84s-1.392.28-1.872.84c-.48.544-.72 1.4-.72 2.568 0 1.184.24 2.056.72 2.616s1.104.84 1.872.84zM190.978 18V6.216h3.552v2.04c.56-1.376 1.76-2.136 3.6-2.28l1.056-.072.216 3.048-2.04.216c-1.792.176-2.688 1.088-2.688 2.736V18h-3.696zm14.283.264c-1.52 0-2.632-.392-3.336-1.176-.704-.8-1.056-1.984-1.056-3.552V1.08h3.624v12.312c0 1.28.568 1.92 1.704 1.92.176 0 .344-.008.504-.024.176-.016.344-.048.504-.096L207.157 18a6.784 6.784 0 0 1-1.896.264zm8.067 0c-1.024 0-1.928-.248-2.712-.744-.768-.512-1.368-1.224-1.8-2.136-.432-.928-.648-2.024-.648-3.288 0-1.264.216-2.352.648-3.264.432-.912 1.032-1.616 1.8-2.112.784-.496 1.688-.744 2.712-.744.784 0 1.504.168 2.16.504.656.336 1.152.784 1.488 1.344V1.08h3.624V18h-3.552v-1.776c-.32.624-.816 1.12-1.488 1.488-.656.368-1.4.552-2.232.552zm1.08-2.712c.768 0 1.392-.28 1.872-.84.496-.56.744-1.432.744-2.616 0-1.168-.248-2.024-.744-2.568-.48-.56-1.104-.84-1.872-.84s-1.392.28-1.872.84c-.48.544-.72 1.4-.72 2.568 0 1.184.24 2.056.72 2.616s1.104.84 1.872.84zm12.008-2.904V11.52c0-.704.128-1.352.384-1.944.256-.608.696-1.248 1.32-1.92.448-.48.76-.888.936-1.224a2.39 2.39 0 0 0 .264-1.08c0-.448-.168-.8-.504-1.056-.32-.256-.784-.384-1.392-.384-1.488 0-2.888.536-4.2 1.608l-1.176-2.736c.704-.608 1.56-1.088 2.568-1.44a9.258 9.258 0 0 1 3.072-.528c1.056 0 1.984.176 2.784.528.8.336 1.416.816 1.848 1.44.448.608.672 1.32.672 2.136 0 .736-.168 1.416-.504 2.04-.32.624-.896 1.28-1.728 1.968-.752.624-1.272 1.168-1.56 1.632-.272.464-.44.912-.504 1.344l-.12.744h-2.16zM225.552 18v-3.84h3.888V18h-3.888z" fill="#111517"/></svg>